{
    "asset" : {
        "generator" : "Khronos glTF Blender I/O v1.7.33",
        "version" : "2.0"
    },
    "scene" : 0,
    "scenes" : [
        {
            "name" : "Scene",
            "nodes" : [
                0,
                1
            ]
        }
    ],
    "nodes" : [
        {
            "mesh" : 0,
            "name" : "Torus"
        },
        {
            "mesh" : 1,
            "name" : "ice"
        }
    ],
    "meshes" : [
        {
            "name" : "Torus",
            "primitives" : [
                {
                    "attributes" : {
                        "POSITION" : 0,
                        "NORMAL" : 1,
                        "TEXCOORD_0" : 2
                    },
                    "indices" : 3
                }
            ]
        },
        {
            "name" : "Torus.001",
            "primitives" : [
                {
                    "attributes" : {
                        "POSITION" : 4,
                        "NORMAL" : 5,
                        "TEXCOORD_0" : 6
                    },
                    "indices" : 7
                }
            ]
        }
    ],
    "accessors" : [
        {
            "bufferView" : 0,
            "componentType" : 5126,
            "count" : 1302,
            "max" : [
                1.7200000286102295,
                0.4899999797344208,
                1.719429850578308
            ],
            "min" : [
                -1.7177194356918335,
                -0.4899999797344208,
                -1.719429850578308
            ],
            "type" : "VEC3"
        },
        {
            "bufferView" : 1,
            "componentType" : 5126,
            "count" : 1302,
            "type" : "VEC3"
        },
        {
            "bufferView" : 2,
            "componentType" : 5126,
            "count" : 1302,
            "type" : "VEC2"
        },
        {
            "bufferView" : 3,
            "componentType" : 5123,
            "count" : 7320,
            "type" : "SCALAR"
        },
        {
            "bufferView" : 4,
            "componentType" : 5126,
            "count" : 744,
            "max" : [
                1.7200000286102295,
                0.4899999797344208,
                1.719429850578308
            ],
            "min" : [
                -1.7177194356918335,
                0,
                -1.719429850578308
            ],
            "type" : "VEC3"
        },
        {
            "bufferView" : 5,
            "componentType" : 5126,
            "count" : 744,
            "type" : "VEC3"
        },
        {
            "bufferView" : 6,
            "componentType" : 5126,
            "count" : 744,
            "type" : "VEC2"
        },
        {
            "bufferView" : 7,
            "componentType" : 5123,
            "count" : 3660,
            "type" : "SCALAR"
        }
    ],
    "bufferViews" : [
        {
            "buffer" : 0,
            "byteLength" : 15624,
            "byteOffset" : 0
        },
        {
            "buffer" : 0,
            "byteLength" : 15624,
            "byteOffset" : 15624
        },
        {
            "buffer" : 0,
            "byteLength" : 10416,
            "byteOffset" : 31248
        },
        {
            "buffer" : 0,
            "byteLength" : 14640,
            "byteOffset" : 41664
        },
        {
            "buffer" : 0,
            "byteLength" : 8928,
            "byteOffset" : 56304
        },
        {
            "buffer" : 0,
            "byteLength" : 8928,
            "byteOffset" : 65232
        },
        {
            "buffer" : 0,
            "byteLength" : 5952,
            "byteOffset" : 74160
        },
        {
            "buffer" : 0,
            "byteLength" : 7320,
            "byteOffset" : 80112
        }
    ],
    "buffers" : [
        {
            "byteLength" : 87432,
            "uri" : "donut_new1.bin"
        }
    ]
}
