{
  "accessors": [
    {
      "bufferView": 2,
      "componentType": 5126,
      "count": 15447,
      "max": [
        0.43148618936538696,
        1.7903010845184326,
        0.43148618936538696
      ],
      "min": [
        -0.43148618936538696,
        0.0,
        -0.4314861595630646
      ],
      "type": "VEC3"
    },
    {
      "bufferView": 2,
      "byteOffset": 185364,
      "componentType": 5126,
      "count": 15447,
      "max": [
        0.9999231100082397,
        1.0,
        0.9999231100082397
      ],
      "min": [
        -0.9999231100082397,
        -0.9997395277023315,
        -0.9999231100082397
      ],
      "type": "VEC3"
    },
    {
      "bufferView": 1,
      "componentType": 5126,
      "count": 15447,
      "max": [
        0.532990574836731,
        1.0
      ],
      "min": [
        0.0,
        0.2552019953727722
      ],
      "type": "VEC2"
    },
    {
      "bufferView": 0,
      "componentType": 5125,
      "count": 91776,
      "type": "SCALAR"
    }
  ],
  "asset": {
    "extras": {
      "author": "LukeModels75 (https://sketchfab.com/lucasgamerbdf)",
      "license": "CC-BY-4.0 (http://creativecommons.org/licenses/by/4.0/)",
      "source": "https://sketchfab.com/3d-models/classic-chess-bishop-3d-model-846130cebb6d49fca063a2180791c72b",
      "title": "Classic Chess Bishop 3D Model"
    },
    "generator": "Sketchfab-16.29.0",
    "version": "2.0"
  },
  "bufferViews": [
    {
      "buffer": 0,
      "byteLength": 367104,
      "name": "floatBufferViews",
      "target": 34963
    },
    {
      "buffer": 0,
      "byteLength": 123576,
      "byteOffset": 367104,
      "byteStride": 8,
      "name": "floatBufferViews",
      "target": 34962
    },
    {
      "buffer": 0,
      "byteLength": 370728,
      "byteOffset": 490680,
      "byteStride": 12,
      "name": "floatBufferViews",
      "target": 34962
    }
  ],
  "buffers": [
    {
      "byteLength": 861408,
      "uri": "scene.bin"
    }
  ],
  "extensionsUsed": [
    "KHR_materials_specular"
  ],
  "materials": [
    {
      "doubleSided": true,
      "extensions": {
        "KHR_materials_specular": {
          "specularColorFactor": [
            1.0,
            1.0,
            1.0
          ],
          "specularFactor": 1.0
        }
      },
      "name": "Material.003",
      "pbrMetallicRoughness": {
        "baseColorFactor": [
          0.5259747095201842,
          0.5259747095201842,
          0.5259747095201842,
          1.0
        ],
        "metallicFactor": 0.0,
        "roughnessFactor": 0.19352439931245502
      }
    }
  ],
  "meshes": [
    {
      "name": "Object_0",
      "primitives": [
        {
          "attributes": {
            "NORMAL": 1,
            "POSITION": 0,
            "TEXCOORD_0": 2
          },
          "indices": 3,
          "material": 0,
          "mode": 4
        }
      ]
    }
  ],
  "nodes": [
    {
      "children": [
        1
      ],
      "matrix": [
        1.0,
        0.0,
        0.0,
        0.0,
        0.0,
        2.220446049250313e-16,
        -1.0,
        0.0,
        0.0,
        1.0,
        2.220446049250313e-16,
        0.0,
        0.0,
        0.0,
        0.0,
        1.0
      ],
      "name": "Sketchfab_model"
    },
    {
      "children": [
        2
      ],
      "name": "root"
    },
    {
      "children": [
        3
      ],
      "matrix": [
        1.0,
        0.0,
        0.0,
        0.0,
        0.0,
        2.220446049250313e-16,
        1.0,
        0.0,
        0.0,
        -1.0,
        2.220446049250313e-16,
        0.0,
        0.0,
        0.0,
        0.0,
        1.0
      ],
      "name": "GLTF_SceneRootNode"
    },
    {
      "children": [
        4
      ],
      "matrix": [
        0.7173322031404232,
        0.0,
        0.5177492335544456,
        0.0,
        -0.0,
        0.8846636414527893,
        0.0,
        0.0,
        -0.5177492335544456,
        -0.0,
        0.7173322031404232,
        0.0,
        -5.059423923492432,
        -0.009539908729493618,
        3.2386176586151123,
        1.0
      ],
      "name": "Vert.002_0"
    },
    {
      "mesh": 0,
      "name": "Object_4"
    }
  ],
  "scene": 0,
  "scenes": [
    {
      "name": "Sketchfab_Scene",
      "nodes": [
        0
      ]
    }
  ]
}
